<svg width="48" height="48" xmlns="http://www.w3.org/2000/svg"><g fill="#FF6A00" fill-rule="evenodd"><path d="M17.25 19.125V39h-4.5V16.5z"/><path opacity=".5" d="M12.75 16.5l4.5 2.625 13.5-8.44V5.25zm27-6l-4.5 3v5.25l4.5-3z"/><path d="M30.75 5.25V39h4.5V7.875zm9 5.25v23.25h4.5V13.125z"/><path opacity=".5" d="M3.75 11.25l4.5 2.625 13.5-8.44V0z"/><path d="M21.75 5.434V45h4.5V2.625L21.75 0zm-13.5 8.441v20.25h-4.5V11.25z"/><path d="M6 36a3 3 0 110-6 3 3 0 010 6zm36 0a3 3 0 110-6 3 3 0 010 6zm-27 6a3 3 0 110-6 3 3 0 010 6zm18.103.38a3.164 3.164 0 110-6.328 3.164 3.164 0 010 6.329zm-9 5.62a3.164 3.164 0 110-6.328 3.164 3.164 0 010 6.328z"/></g></svg>